<svg xmlns="http://www.w3.org/2000/svg" viewBox="0 0 1680 827.2"><style>.st0{fill:none;stroke:#fff;stroke-width:5}.st1{fill:#fff}</style><g id="base"><path d="M742.2 331.8c.8-.1 1.6-.4 2.4-.4 1.4-.1 2.8.3 3.9 1.3 1.3 1.3 2.6 2.5 3.6 4 3.1 4.5 5.3 9.4 6.3 14.8.4 2.1.6 4.2.8 6.2.2 2.5-.9 4.4-2.6 6.1-.4.1-.9.3-1.5.5.4.9.6 1.7.9 2.4 7.1 15.9 14.1 31.8 21.2 47.7 14.5 32.5 29 65 43.4 97.5 18.2 41 36.4 82 54.6 122.9 1 2.2 1.6 4.4 1.5 6.7-.1 1.9-.4 3.8-.6 5.7-.2 1.8-.6 3.6-.9 5.4-1 6.7-2 13.3-2.9 20-.8 5.9-3.4 10.2-9.2 12.2-.3.1-.5.3-.8.4-3.4 1.5-6.8 2.9-10.5 4.5-.4.9-.8 2.1-1.3 3.2-1 2.1-2.1 4.1-3.3 6.1-1.1 1.8-2.8 3.2-4.7 4.2-1.5.8-3.1 1.5-4.6 2.2-7.4 3.1-14.9 6.1-22.3 9.1-14.9 6-29.8 12-44.7 18.1-.9.4-1.8.8-2.7 1.1 0 2.5 0 2.5-1.6 4-1.1 1-2.3 1.9-3.6 2.8-3.2 2.3-6.7 4.1-10.3 5.7-5.6 2.5-11.2 4.9-17.3 6.2-1.9.4-3.8.6-5.7.8-1.3.1-2.4-.3-3-1.6-.2-.3-.5-.6-.7-.9-.5.2-.9.3-1.2.5-26 10.5-52 21-78 31.4-14.1 5.7-28.2 11.3-42.3 16.8-2.2.9-4.6 1.6-6.9 2.2-4.7 1.1-8.7-.3-12.1-3.8-2-2.1-3.7-4.5-4.8-7.2-5.1-12.4-10.3-24.7-15.5-37-22.6-54-45.3-107.9-67.9-161.8-10.6-25.4-21.2-50.9-31.7-76.3-1-2.4-2.5-4.3-4.6-5.8-.2-.2-.5-.4-.7-.5.4-1.1 0-1.9-.5-2.8-2.3-3.9-4.1-8.1-5.6-12.4-.4-1.2-.9-2.5-1.3-3.7-.3-.8-.9-.9-1.8-1-.5-2.9-1.1-5.8-1.1-9 1 .9 1.3 1.8 1.8 2.7 2.8 4.8 4.7 10 6.5 15.2.5 1.5 1 3 1.6 4.5.2.6.5 1.3 1.4 1.3.8-.6.7-1.4.5-2.2-.6-2.3-1-4.7-1.8-7-1.5-4.8-3.3-9.5-6-13.8-.9-1.5-2-2.8-3.5-3.7-1.3-.8-2-1.9-2.5-3.2-1.9-4.7-3.9-9.3-5.8-13.9-1.6-3.9-3.2-7.8-4.9-11.8 1.1-.1 1.3-.8 1-1.5-.3-.9-.7-1.7-1.1-2.5-1.7-3.4-3.3-6.9-5-10.3-.6-1.3-1.2-2.5-1.7-3.9-.4-1-1.3-1.4-2-1.6-.7-2.1-1.3-4-2-5.9-9.2-22.4-18.5-44.8-27.7-67.2-2-4.8-3.4-9.7-3.7-14.9-.5-7.8-.8-15.7-1.2-23.5-.3-5.2-.5-10.4-.8-15.7-.2-3.1-.4-6.2-.4-9.3-.1-4.6 2.2-7.8 6-10.1 1.2-.7 2.5-1.3 3.8-1.9 2.4-1 4.8-2 7.3-2.9 30.1-11.1 60.2-22.2 90.2-33.3 32.8-12.1 65.7-24.1 98.5-36.2 12.6-4.6 25.4-9.1 38-13.7 2.1-.8 4.3-1.1 6.5-1.3 3.2-.3 5.9.7 8.4 2.7 2 1.6 3.5 3.6 4.5 6 2.6 6.5 5.9 12.8 8.8 19.2.7 1.6 1.8 2.8 3.2 3.8 5.4 3.9 8.8 9.1 10 15.6.5 2.8.8 5.6 1 8.4.1 2.3.7 4.3 1.7 6.3 11.1 24.2 22.2 48.4 33.4 72.6.3.6.6 1.2 1 1.9 1.2-.4 2.3-.7 3.3-1 3.4-1 6.7-2.1 10.1-3 5.2-1.4 8.4.8 10.5 3.9.5.7.9 1.5 1.4 2.3.2.4.5.8.7 1.2h.5c.1-.3.4-.5.7-.8z"/><path class="st1" d="M664.4 226.4c-4.4-2.4-9.1-3-14-1.6-.6 0-3.1 1-5.3 2.2-5.6 3.2-9.1 7.4-10.5 13.4-.6 2.6-.6 5.2-.1 7.8 2 9.6 11.4 16.1 22 15.2 4.1-.4 7.7-2.1 11.1-4.3 5-3.2 7.5-7.9 7.6-13.6.1-8.4-3.3-15-10.8-19.1zM599.2 250c-7.5-2.8-14.4-1.4-21 2.6-1.5.9-3.1 3.2-4.1 4.6-2.9 3.9-3.3 10.5-2.3 15.5 1.3 6.8 8.8 13.9 15.2 14.7 2.7.3 5.2.3 7.8-.2 5.6-1.1 10.4-3.5 13.9-8.3 5-6.9 4.5-15.9-.4-22.2-2.4-3.1-5.4-5.4-9.1-6.7zM467 296.8c-4.9-.8-9.6.2-14.1 2.2-2.3 1-4.1 2.5-5.6 4.5-3.5 4.6-4.6 9.8-3.7 15.4.3 1.7.4 3.6 1.7 5.2.3 1.1.8 2.2 2.1 3.8 2.9 3.5 6.2 6.1 10.6 7.2 5.2 1.2 10.2.2 15-1.8 4.7-2 7.8-5.5 9.9-10.1 1.4-3.2 1.8-6.5 1.2-10-1.2-7.8-7.9-14.9-17.1-16.4zM533.7 272.6c-1.8-.6-3.7-.8-5.6-.8-4.3 0-8 1.7-11.5 3.9-.8.4-3.1 1.8-4.9 4.2-1.6 1.1-2.2 2.8-2.9 4.3-1.7 3.5-2.4 7.2-1.7 11.1 1.8 10.6 12.2 17.3 22.9 15.8 4.5-.6 8.4-2.7 12-5.4 2.1-1.6 3.6-3.7 4.7-6.2 1.8-4.5 1.8-9 .3-13.6-2.2-6.7-6.7-11.1-13.3-13.3z"/><path class="st1" d="M742.2 331.8c-.3.2-.6.5-1 .7h-.5c-.2-.3-.4-.8-.7-1.2-.5-.8-.9-1.6-1.4-2.3-2.2-3.1-5.4-5.3-10.5-3.9-3.4.9-6.7 2-10.1 3-1 .3-2.1.6-3.3 1-.4-.7-.7-1.3-1-1.9-11.1-24.2-22.2-48.4-33.4-72.6-.9-2-1.5-4.1-1.7-6.3-.2-2.8-.5-5.6-1-8.4-1.2-6.5-4.6-11.7-10-15.6-1.4-1-2.5-2.2-3.2-3.8-2.9-6.4-6.2-12.7-8.8-19.2-.9-2.4-2.5-4.4-4.5-6-2.4-2-5.2-3-8.4-2.7-2.2.2-4.4.5-6.5 1.3-12.7 4.6-25.4 9.1-38 13.7-32.8 12-65.7 24.1-98.5 36.2-30.1 11.1-60.2 22.2-90.2 33.3-2.5.9-4.9 1.9-7.3 2.9-1.3.5-2.6 1.1-3.8 1.9-3.7 2.3-6.1 5.6-6 10.1.1 3.1.3 6.2.4 9.3.3 5.2.5 10.4.8 15.7.4 7.8.6 15.7 1.2 23.5.3 5.1 1.7 10.1 3.7 14.9 9.2 22.4 18.5 44.8 27.7 67.2.8 1.8 1.3 3.8 2 5.9.7.3 1.6.6 2 1.6.5 1.3 1.1 2.6 1.7 3.9 1.6 3.4 3.3 6.9 5 10.3.4.8.8 1.6 1.1 2.5.2.7.1 1.4-1 1.5 1.7 4.1 3.3 8 4.9 11.8 1.9 4.6 3.9 9.3 5.8 13.9.5 1.4 1.2 2.5 2.5 3.2 1.5.9 2.5 2.3 3.5 3.7 2.7 4.3 4.6 9 6 13.8.7 2.3 1.2 4.7 1.8 7 .2.8.3 1.6-.5 2.2-.9.1-1.2-.7-1.4-1.3-.6-1.5-1.1-3-1.6-4.5-1.8-5.2-3.7-10.4-6.5-15.2-.5-.8-.8-1.8-1.8-2.7-.1 3.3.6 6.2 1.1 9 .8.1 1.5.2 1.8 1 .4 1.2.9 2.5 1.3 3.7 1.4 4.3 3.3 8.4 5.6 12.4.5.9.9 1.7.5 2.8.2.2.4.4.7.5 2.1 1.5 3.6 3.4 4.6 5.8 10.5 25.5 21 50.9 31.7 76.3 22.6 54 45.3 107.9 67.9 161.8 5.2 12.3 10.3 24.7 15.5 37 1.1 2.7 2.8 5.1 4.8 7.2 3.3 3.4 7.3 4.9 12.1 3.8 2.3-.6 4.7-1.3 6.9-2.2l42.3-16.8c26-10.5 52-21 78-31.4.4-.1.7-.3 1.2-.5.3.3.6.5.7.9.6 1.2 1.7 1.7 3 1.6 1.9-.2 3.8-.4 5.7-.8 6-1.3 11.7-3.7 17.3-6.2 3.6-1.6 7.1-3.4 10.3-5.7 1.2-.9 2.4-1.8 3.6-2.8 1.6-1.4 1.6-1.5 1.6-4 .9-.4 1.8-.8 2.7-1.1 14.9-6 29.8-12 44.7-18.1 7.5-3 14.9-6.1 22.3-9.1 1.6-.7 3.1-1.4 4.6-2.2 1.9-1 3.6-2.3 4.7-4.2 1.2-2 2.2-4 3.3-6.1.5-1.1.9-2.2 1.3-3.2 3.6-1.5 7-3 10.5-4.5.3-.1.5-.3.8-.4 5.8-2 8.5-6.3 9.2-12.2.9-6.7 1.9-13.3 2.9-20l.9-5.4c.3-1.9.5-3.8.6-5.7.1-2.3-.5-4.6-1.5-6.7-18.2-41-36.4-82-54.6-122.9-14.5-32.5-28.9-65-43.4-97.5-7.1-15.9-14.1-31.8-21.2-47.7-.3-.7-.6-1.5-.9-2.4.6-.2 1-.3 1.5-.5C795.2 450.9 834.1 538 873 625.2l1.5 3.3c.6 1.5 1.3 2.9 2.6 4 1.4 1.1 2 2.8 2.2 4.5.5 3.6.3 7.2-.2 10.8-.7 4.8-1.4 9.6-2.1 14.3-.7 4.7-1.5 9.3-2.3 14-.9 5.1-4 8.5-8.4 10.7-3.3 1.6-6.8 3-10.2 4.5-.6.2-1.1.5-1.8.7-.7 1.5-1.4 3.1-2.1 4.6-1.6 3.5-4 6.3-7.1 8.5-1.8 1.2-3.9 2.1-5.9 3-16.4 6.7-32.8 13.4-49.2 20-5.6 2.3-11.2 4.5-16.8 6.8-.6.3-1.3.5-2 .9-.1 1.4-.9 2.3-1.9 3.3-2.3 2.3-4.9 4.2-7.7 5.8-7.9 4.5-16.2 8.1-25 10.2-2.4.6-4.7.9-7.2.9-1.8 0-3.4-.1-4.8-1.5-1.6.6-3.1 1.2-4.6 1.8-34.4 13.9-68.8 27.8-103.2 41.6-4.8 1.9-9.6 3.7-14.4 5.5-3.6 1.4-7.4 1.8-11.3 1.2-2.7-.4-5-1.5-6.9-3.4-3.1-2.9-5.6-6.2-7.3-10.2-12-28.9-24.2-57.7-36.3-86.5-11.9-28.4-23.8-56.8-35.7-85.1-11.1-26.5-22.1-53.1-33.2-79.6-3.3-8-6.7-16-10-23.9-.5-1.2-1.1-2.4-2.3-3.1-3.2-1.7-5.1-4.5-6.7-7.6-2.4-4.5-4-9.2-4.9-14.2-.6-3.2-.8-6.4-1.3-9.6-.2-1.4-.5-2.8-1-4.1-3.7-9.1-7.5-18.2-11.3-27.3-.2-.6-.5-1.1-.8-1.6-4.2-6.1-7-12.9-8.7-20.1-.4-1.7-1-3.3-1.6-4.8-6.9-16.8-13.9-33.7-20.8-50.5-2.2-5.4-4.5-10.8-6.7-16.2-2.4-5.8-3.8-11.8-4-18.2-.2-7.3-.8-14.7-1-22-.2-6.6-.7-13.3-1.1-19.9-.2-3.1-.3-6.2.3-9.3.3-1.7 1-3 2.1-4.3 2.5-3 5.5-5.3 9.2-6.7 4.4-1.6 8.8-3.4 13.2-5.1 24.9-9.1 49.9-18.2 74.8-27.4 38.5-14.2 77-28.4 115.5-42.5 10.1-3.7 20.3-7.2 30.4-10.9 3.9-1.4 7.9-1.5 11.9-1.2 1.7.1 3.3.8 4.7 1.8 3.1 2.3 5.7 5.1 7.3 8.7 2.8 6.2 5.7 12.4 8.5 18.7.6 1.2 1.4 2.1 2.5 2.9 6.1 4.8 10.3 10.7 11.2 18.6.3 2.5.6 5 .7 7.5.1 1.5.5 2.9 1.1 4.3 10.9 23.7 21.7 47.3 32.6 71 .2.4.5.9.8 1.5 1.3-.4 2.5-.7 3.7-1.1 2.3-.8 4.7-1.2 7.1-1.4 2.1-.2 4.2.1 6.3.6 3.8.9 6 3.5 7.7 6.8.4.9.8 1.8 1.1 2.6z"/><path class="st1" d="M873.9 641.4l-2.7 1.2c-38.5 16.5-77.1 32.9-115.6 49.5-35.9 15.5-72.1 30.2-108.3 45.2-8.8 3.7-17.7 7.2-26.5 10.8-3.1 1.2-6.2 2.2-9.7 2-5-.3-8.9-2.4-11.6-6.6-2.1-3.3-4-6.7-5.5-10.4-9.1-21.8-18.1-43.6-27.2-65.5-7.8-18.9-15.5-37.7-23.3-56.6-9.7-23.5-19.5-47-29.2-70.5-9.1-22.1-18.5-44.1-28.1-66.1-4.6-10.4-9.1-20.8-13.6-31.3-1.5-3.6-2.8-7.3-3.6-11.2-.6-2.9.4-5 2.8-6.4 2.1-1.2 4.2-2.3 6.5-3.2 40.8-15.7 81.6-31.4 122.5-47 28.6-11 57.3-21.8 86-32.7 10.1-3.9 20.3-7.8 30.4-11.6 4-1.5 8-2.7 12.1-3.7 2.5-.6 4.6.2 6.2 2.1.7.8 1.4 1.8 1.9 2.7.9 1.7 1.6 3.5 2.4 5.2 6.3 14.3 12.5 28.5 18.8 42.8 15.4 34.7 30.8 69.3 46.2 103.9 15 33.8 30.1 67.6 45.2 101.4l12 27c3.7 8.2 7.3 16.3 11.1 24.5.6 1.6.8 2.9.8 4.5zM398.1 285.7c.6-1.1 1.7-1.7 2.8-2.2 1.8-.8 3.7-1.7 5.5-2.4 15.2-5.6 30.4-11.1 45.6-16.6 13.3-4.9 26.6-9.8 39.9-14.6 40.4-14.8 80.8-29.5 121.2-44.2 6.6-2.4 13.2-5 19.8-7.4 2.6-1 5.4-1.7 8.1-2.5 4.2-1.2 7.5.2 10.1 3.5 1.2 1.5 2 3.2 2.9 4.9.7 1.3 1.3 2.7 1.8 4.1 1.3 3.4 2.5 6.8 4.3 9.9.4.7.6 1.5 1 2.4-2.4.2-4.4-.8-6.7-.5-.8-1.7-1.6-3.3-2.3-5l-4.2-9c-1.4-3-3.7-4.3-7-4.3-2.3 0-4.4.6-6.5 1.3-12.6 4.5-25.2 9-37.7 13.6-39 14.2-78 28.5-117 42.8-20 7.3-40 14.7-60 22-6.1 2.2-12.3 3.7-18.7 4.7-1.1.4-1.2.4-2.9-.5z"/><path d="M858.8 628.2c-.1 2.7-1.3 4.9-3.2 6.7-1.9 1.7-4 3-6.4 4-8.4 3.4-16.7 6.9-25.1 10.3-16.8 6.8-33.5 13.7-50.3 20.5-41.5 16.9-83 33.8-124.6 50.7-10.2 4.2-20.5 8.3-30.7 12.5l-3.9 1.5c-7.1 2.9-12.5-1-14.5-5.9-1.6-4-3.5-7.9-5.2-11.9-12-28.3-24.1-56.6-36.1-84.9-7-16.5-13.9-33-20.8-49.5-.9-2.2-1.8-4.5-2.6-6.8-2-5.9.2-11.8 5.7-15 1.6-.9 3.2-1.7 4.9-2.4l70.5-27.6c25.8-10 51.6-19.9 77.3-29.9 22.8-8.8 45.6-17.6 68.4-26.3 5.6-2.2 11.2-4.4 17.1-6 1.9-.5 3.7-.7 5.7-.5 3.3.3 5.7 2 7.2 4.8 1.1 2 2 4.2 2.9 6.3 8.2 18.6 16.4 37.2 24.5 55.8 11.2 25.7 22.4 51.4 33.7 77.1 1.9 4.2 3.6 8.5 4.8 13 .2 1.2.4 2.4.7 3.5zM615.2 494.4c-2.8 1.6-5.2 2.3-7.5 3.1-.6.2-1.4-.1-2-.3-7.1-2.7-14.2-5.5-21.3-8.3-.4-.1-.7-.3-1.1-.6-.8-.5-.7-1.5.1-2 .7-.4 1.5-.7 2.2-1 3.3-1.4 6.7-2.8 10-4.3.8-.4 1.6-.9 2.3-1.5 1.7-1.7 1.1-3.9-1.2-4.7-1.1-.4-2.2-.3-3.2.1-1.8.7-3.6 1.3-5.4 2-2.6 1-5.3 2-7.9 3-2.1.8-2.4 1.5-1.6 3.7.7 1.8 1.5 3.5 2.3 5.3 1.9 4.4 3.9 8.8 5.8 13.3.3.7.6 1.5.9 2.3-.4.3-.7.6-1 .8l-4.5 1.8c-.4-.7-.7-1.2-1-1.7-3-7-6-14-9.1-21-1.9-4.3.1-8 3.8-9.3 5.5-1.9 10.9-4.1 16.4-6.1 1.8-.7 3.7-1 5.6-.7 5.5.7 9 6.5 7 11.7-.8 2.2-2.2 4.1-4.2 5.4-.8.6-1.7 1.1-2.8 1.7.5.3.9.6 1.3.8 4.5 1.8 9 3.5 13.5 5.3.8.2 1.4.6 2.6 1.2zm112.5-60.3c-.3-.4-.7-.7-.8-1.1-.6-1.4-1.1-2.8-1.6-4.1.3-.4.4-.7.6-.9 3.6-2.1 7.4-3.5 11.7-3.6 2.9-.1 5.6.8 8 2.3 2.7 1.6 4 4.1 4.2 7.2.3 4.8-1.7 8.4-5.8 10.8-2.1 1.3-4.4 2.3-6.7 3.4-1.4.7-2.9.9-4.4 1-4.7.3-8.1-1.7-10.6-5.6-.5-.8-1-1.8-1.4-2.7-2.4-5.6-4.7-11.3-7.1-17-.2-.5-.4-1.1-.6-1.8 2.1-1.1 4.3-1 6.5-1.4.5 1 .9 1.9 1.3 2.8 2.1 4.8 4.1 9.6 6.2 14.4.6 1.3 1.3 2.5 2.3 3.5 1.1 1 2.4 1.4 3.9 1.1 2.4-.6 4.8-1.5 6.8-3.1.5-.4 1.1-.9 1.5-1.5 1.8-2.3 1.2-5.2-1.4-6.6-1.3-.7-2.6-1-4.1-.5-2 .7-4 1.4-5.9 2.2-.7.4-1.6.8-2.6 1.2zm-36.1 20.6c-6.7 2.6-13.3 5.1-19.6 8-.3.9.3 1.2.7 1.3 3.2 1.1 9 .8 12-3.3 1.7-2.3 4.1-2.9 6.6-3.7.8 1.3.4 2.5-.1 3.6-1.2 3.2-3.4 5.7-6.5 7.2-2.2 1.1-4.4 1.9-6.8 2.3-4.2.7-8-.1-11.2-3-2.9-2.6-4-5.9-3.1-9.8 1.1-4.5 3.7-7.7 8-9.6 3.2-1.4 6.5-2.3 10-1.6 1.6.3 3.1.7 4.6 1.4 3.1 1.3 4.7 3.8 5.4 7.2zm-22.1 3.3c.8.7 1.6.2 2.3-.1 3.3-1.3 6.7-2.7 10-4 .3-.1.6-.2.8-.4.2-.2.5-.5.5-.7-.1-.3-.3-.8-.5-1-1.4-.9-3.1-.9-4.7-.8-2.2.2-4.1 1-5.7 2.4-1.4 1.2-2.4 2.7-2.7 4.6z"/><path d="M636.3 475.6c-1.2.5-2.4.9-3.6 1.4-4.6 1.8-9.2 3.6-13.7 5.4-1 .4-2.1.7-2.8 1.6.4 1.3 1.6 1.5 2.6 1.8 4.2 1.3 9.6-.7 11.9-4.5.8-1.3 1.7-1.9 2.9-2.3.8-.3 1.7-.6 2.4-.8.9.9.6 1.8.4 2.7-1 3.3-2.9 5.9-6 7.7-2.6 1.5-5.5 2.5-8.5 2.9-3.6.4-7-.4-9.9-2.7-3.4-2.7-4.6-6.3-3.5-10.5 1.1-4.3 3.7-7.5 7.9-9.3 4.8-2.2 9.7-2.6 14.6-.3 3 1.3 4.4 3.2 5.3 6.9zm-21.4 2.8c.2.1.4.3.5.3 4-1.5 8-3.1 11.9-4.7.1-.1.2-.3.3-.6-1.1-1.1-2.6-.7-3.9-.7-2.5 0-4.7.9-6.6 2.4-1 .9-2.2 1.8-2.2 3.3zm35.6-8c1-5.2 2-10.2 3-15.4 2.3-1.1 4.7-2.2 6.9-3.3.9.3.9.8.8 1.5l-3 13.5c-.8 3.5-1.6 7.1-2.4 10.6-.3 1.2-.6 2.3-2 2.8-.7.3-1.4.4-2 0-.5-.3-1-.6-1.5-1-6.2-4.4-12.4-8.9-18.6-13.4-.6-.4-1.1-.9-1.8-1.5.5-.5.8-1 1.3-1.2 1.6-.7 3.3-1.8 5-1.9s2.9 1.6 4.3 2.5c2.8 1.8 5.4 3.8 8.2 5.7.5.5 1.1.7 1.8 1.1zM521 489.7c-.5-1.2-.9-2.4-1.4-3.8.8-.4 1.5-.7 2.2-1 1.9-.8 3.9-1.6 5.8-2.5 2.5-1.2 3.1-3.2 2.7-5.8-.5-3-3.5-6.7-8-5.1-2.1.7-4.2 1.5-6.2 2.4-2.4 1.1-2.7 1.8-1.7 4.2 1.4 3.2 2.8 6.4 4.2 9.7.4.9.7 1.8 1.1 2.7-1 1.2-2.4 1.5-3.7 2.1-.4-.5-.8-.9-1-1.4-1.9-3.9-3.6-7.9-5.5-11.7-1.9-3.7-.1-6.7 2.3-8.4 1-.7 2-1.3 3.1-1.8 2.4-1 4.9-1.9 7.3-2.8 2.4-.8 4.8-.3 7 .9 3.2 1.8 5.1 4.6 5.8 8.1 1 4.7-1.5 9.4-5.9 11.4-2.2 1-4.5 1.8-6.7 2.6-.4.2-.8.2-1.4.2zm183-29.6c-2.2.9-4 1.7-6.1 2.1-.3-.5-.7-1-.9-1.5-1.3-3-2.6-6.1-3.8-9.2-.4-.9-.7-1.9-.9-2.9-.7-3.7.7-7.2 4.1-8.9 5.8-3 11.8-5.3 17.8-7.9 1.5 1.5 1.9 3.4 2.9 5.2-.8.5-1.4.9-2.1 1.2-4.1 1.8-8.3 3.6-12.4 5.5-.6.3-1.3.5-1.9.9-1.2.7-1.8 2-1.5 3.3.3 1.1.7 2.1 1.1 3.1 1 2.4 2.1 4.8 3.1 7.2.1.5.3 1.1.6 1.9zm-156.4 20.7c.7-.9 1.9-1.1 2.8-1.5.2 0 .3 0 .4.1 1.3.8 2.6 1.5 4.2 1.2 1.8-.3 3.4-1.2 4.7-2.5.9-.8 1.2-1.8.7-3-1.2-2.6-2.4-5.3-3.7-7.9-.6-1.2-1.6-1.8-2.9-1.7-2.2.1-4.1 1-5.6 2.5-.5.5-.7 1.2-.9 1.9-.5 2.3 1.3 4.3 3.6 3.9 1-.2 1.9-.6 2.9-.9 1-.4 2-.9 3.2-1.4.3.5.7 1 .9 1.5.3.5.5 1.1.8 1.8-.4.3-.8.8-1.3 1-1.7.7-3.3 1.5-5.1 1.9-5.4 1.4-9.8-2.9-8.9-8.4.4-2.3 1.5-4.1 3.4-5.4 2-1.4 4.3-2.2 6.7-2.5 2.1-.3 4 .3 5.4 2 .7.8 1.3 1.8 1.8 2.8 1.2 2.5 2.2 5.2 3.4 7.7.8 1.6.6 3.1-.1 4.6-2.2 5.1-10.1 7.5-14.7 4.4-.8-.6-.8-.6-1.7-2.1zm169.9-15.9c.3.7.5 1.5.8 2.2.8 2 .2 3.8-1.3 5.2l-1.8 1.5c.1.7.6.7 1.1.9l5.4 1.8c.6.2 1.2.6 1.7.9.2.8-.2 1.1-.6 1.4-1.3.7-2.6 1-4.1.6-3.3-1-6.5-2-9.8-3.1-.8-.3-1.6-.8-2.4-1.3-.8-.5-.7-1.6.2-2 1.3-.6 2.6-1.1 3.9-1.7l2.7-1.2c.6-.3.8-.9.7-1.5 0-.7-.5-1.2-1.1-1.2-.5 0-1 .1-1.5.3-2.5 1-5 2-7.7 3.1 1.2 4.5 3.3 8.6 4.6 13-1.2 1-1.2 1-3.3 1.6-.3-.4-.7-.8-.9-1.4-1.4-3.8-2.8-7.5-4.2-11.3-.2-.7-.4-1.3-.5-2-.2-1.3.4-2.5 1.5-3 3.2-1.5 6.2-3.2 9.7-4.1l1.5-.3c1.8-.2 3.4 0 4.7 1.4.2 0 .5.1.7.2zm-231.3-25.8c.7.5 1.1.1 1.5-.1 3.6-1.3 7.1-2.6 10.7-3.9.9-.3 1.9-.5 2.9-.5 1.5 0 2.2 1.6 1.3 2.9-.3.5-.8.9-1.3 1.1-.7.4-1.5.6-2.2.9-3.5 1.3-7 2.6-10.8 4 .6.4.9.7 1.3.9 1.3.6 2.6 1.1 3.9 1.6.5.2 1.1.5 1.6.9.6.4.9 1.1.7 1.9-.2.9-1.1 1.7-1.9 1.6-.8 0-1.6-.2-2.3-.5-3-1.1-6-2.2-9-3.4-.6-.2-1.1-.5-1.6-.8-1-.6-1.4-1.7-1.1-2.9.1-.5.3-1 .5-1.4 1.7-3.5 3.3-7.1 5-10.6.5-1.1 1.5-1.6 2.7-1.5.7 0 1.1.4 1.3 1 .3 1 .2 2-.3 2.9-.7 1.3-1.3 2.7-1.9 4.1-.5.6-.7 1.2-1 1.8zM719.1 357c1.9.9 3.4 1.5 4.9 2.2.7.3 1.5.7 2.1 1.1.7.5 1 1.2.8 2.1-.2.8-1.1 1.5-2 1.5-.7 0-1.4-.2-2-.5-3.3-1.4-6.6-2.9-9.9-4.4-1.8-.9-2.3-2-1.6-3.9.8-2.2 1.8-4.3 2.7-6.4l1.5-3.3c.2-.4.3-.7.6-1 .6-.8 2.1-1.2 3-.7.7.3 1 1.4.8 2.4-.1.6-.4 1.1-.7 1.7-.7 1.5-1.4 3-2.2 5 1-.2 1.5-.3 2.1-.5 4-1.3 8-2.7 12-4.1.7-.2 1.3-.4 2-.5.9-.1 1.6.5 1.8 1.2.3.8.2 1.7-.5 2.2-.8.6-1.7 1-2.6 1.4-3.3 1.2-6.6 2.3-10 3.4-.8.3-1.5.6-2.8 1.1zM601.5 458.2c-2.3 1.7-5.6 3.1-7.8 3.2-4.8.2-8.1-3.6-7.5-8.4.4-2.6 1.6-4.5 3.7-5.9 2-1.3 4.1-2.2 6.4-2.6 2.6-.5 4.8.1 6.4 2.4.4.6.9 1.1 1.1 1.8 1.1 2.4 2.1 4.8 3.1 7.1-1 1.4-2.4 1.5-3.9 1.9-.4-.7-.7-1.3-1-1.9-.6-1.4-1.2-2.7-1.9-4.1-1.1-2.1-2.7-2.8-5-2.1-1 .3-2.1.9-2.9 1.5-1.3 1-1.7 2.5-1.1 3.7.7 1.3 1.9 1.9 3.6 1.4 1.1-.3 2.2-.9 3.3-1.3 1.2-.5 1.8-.3 2.4 1 .5.7.8 1.5 1.1 2.3zm-20.8-7.4c.8.8 1.5 1.4 2.1 2.1.2.2.2.5.4.9-1.2 1.2-2.9 1.4-4.3 2.1-1.4.6-2.8 1.1-4.1 1.7.3 2.2 1.6 4.4 3.1 5.3 1.1.7 2.3.8 3.5.4 1.5-.5 3-1.1 4.6-1.8.3.5.7.9.9 1.4.2.4.3.9.6 1.5-.4.4-.8.9-1.3 1.1-1.2.6-2.3 1.3-3.6 1.6-4.5 1.3-7.7-.1-10-3.5-.8-1.2-1.4-2.7-2.1-4.1-.7.2-1.5.3-2.3.5-1.1-.7-1.3-2-1.9-3.2.8-.6 1.6-1.1 2.5-1.7-.7-1.8-1.4-3.6-2-5.3.7-1.5 2.2-1 3.2-1.5 1.6 1.5 1.5 3.9 3.2 5.2 1.4 0 2.5-.8 3.7-1.2 1.2-.5 2.4-1 3.8-1.5zm136.9 14.1c.2-.1.4-.1.5-.3.1-.1.1-.4 0-.6-1.1-2.3-1.1-2.3 1.1-3 .4-.1.8-.3 1.1-.4h.7c3.3 3.4 6.6 6.8 9.8 10.2.9-.2.8-.8.8-1.2.1-3.6.2-7.2.2-10.8 0-.9.1-1.8.1-2.7 1.3-.7 2.5-1.3 3.9-.9.2.2.3.3.3.4 0 2.1 0 4.2-.1 6.3-.1 2.6-.1 5.2-.3 7.8-.1 1.2-.2 2.4-.6 3.5-.9 2.4-3.2 3.2-5.4 1.9-1-.6-2-1.4-2.8-2.2-2.6-2.5-5.2-5.1-7.7-7.6-.3-.3-.7-.7-1.1-.9 0 0-.4.3-.5.5-.1 0 0 0 0 0zm44-1c-3.7 1.4-7.2 2.8-10.8 4.1-1.6-1.7-2-3.4-1.1-5.3.7-1.5 1.6-3 2.4-4.5.5-.9.9-1.8 1.3-2.7.4-.9.1-1.7-.6-2.1-.9-.4-2.1-.1-2.6.9-.3.7-.5 1.5-.7 2.2-.3.2-.5.3-.6.3-2.8.1-3.5-.7-2.9-3.3.5-2.3 2.8-4.3 5.1-4.4 2.8-.2 5.1 1.1 6.1 3.5.5 1.2.4 2.4 0 3.5-.3.9-.8 1.8-1.2 2.7-.5 1-.9 2-1.5 3.3.7-.1 1.2-.1 1.6-.2 1.5-.4 2.9-1.4 4.5-1.2 1.1 1.4 1.1 1.4 1 3.2zm-155.8-29.2c2.5 6.1 5 12.3 7.5 18.4.1.1-.1.4-.2.8-1 .4-2.2.8-3.5 1.3-.3-.4-.6-.7-.8-1.1-2.5-5.9-5-11.7-7.5-17.8 1.4-1 2.6-1.9 4.5-1.6zm-35.2 36c-1.1 1.2-2.1 1.7-3.5 1.5-1.4-2-5.3-10.5-6.3-13.8.8-1.1 2.1-1.3 3.5-1.6 1.7 2.1 2.3 4.7 3.4 7 1 2.3 1.9 4.6 2.9 6.9zm-35.7-2.4c1.2-.7 2.2-1.2 3.4-1.3 1.4 1.8 3.8 7 6.4 13.8-.3.3-.6.7-1 .9-2.1 1.1-2.6.9-3.7-1.3-1.5-3.4-3.1-6.8-4.6-10.2-.2-.5-.3-1.2-.5-1.9zm209.3-9.2c1.1.8 1.3 1.9 1.5 2.9-1.3 1.5-3.3 2.5-5.9 2.8-1.1-1.4-1.1-1.4-1.1-3.4 1.7-1 3.5-1.9 5.5-2.3zm-206.8 4.6c.1 1-1.1 2.2-2.3 2.3-1.3.1-2.4-.9-2.4-2.1 0-1.3.9-2.2 2.3-2.3 1.1 0 2.3.9 2.4 2.1zm23.2-7.8c-1.2 0-2.2-.9-2.2-2-.1-1.3 1.1-2.4 2.5-2.4 1.3 0 2.3 1 2.2 2.3 0 1.2-1.1 2.1-2.5 2.1zm-21.5-202.4c1.3 2-.6 2.7-1.1 3.7.1 1.3 1.2 1.3 1.9 1.9-.1.3-.2.6-.3.8-.6.5-1.2 1.1-1.9 1.5-2.3 1.4-5.4.5-6.8-1.8-1.3-2.2-.3-4.3 2.2-4.7h.3c1 0 2 .2 3 0 .8-.2 1.6-.8 2.7-1.4z"/><path class="st1" d="M510.8 333.8c-1.2-.9-1.5-1.9-1.6-3l-.3-14.7c0-.8.2-1.6.5-2.3.1-.2.4-.5.7-.5.3 0 .8.2 1 .5.3.5.6 1.1.6 1.7.2 5.2.3 10.4.4 15.6-.1.9-.4 1.8-1.3 2.7zm64-24.7c-1.3-.9-1.5-2.1-1.5-3.3-.1-3.9-.2-7.8-.2-11.7 0-1.3 0-2.6.1-3.9 0-.7.3-1.4 1.2-1.6.8.2 1.1.8 1.3 1.5.1.7.2 1.4.2 2.1l.3 13.2c-.1 1.3-.2 2.6-1.4 3.7zm61.2-23.5c-1.3-.8-1.5-1.9-1.5-3-.1-2.1-.2-4.2-.2-6.3 0-2.8-.1-5.6 0-8.4 0-1.8.8-3.2 1.5-2.9 1.2.5 1.2 1.7 1.4 2.8.1.4.1.8.1 1.2v13.2c0 1.1-.1 2.3-1.3 3.4zm-189 51.1c.4.6.9 1 1 1.5.3 1.1.4 2.2.4 3.3.1 4.2.1 8.4.1 12.6 0 .9-.2 1.8-.5 2.6-.1.3-.5.5-.8.8-1.3-.8-1.4-2-1.5-3.2-.1-2.5-.2-5-.2-7.5v-7.2c.1-1 .2-2 1.5-2.9zM747.9 716c.6.3 1.1.4 1.4.8.6.9 1.1 1.9 1.5 2.9 1.2 3.3 2.4 6.6 3.5 9.9.2.6.2 1.2.2 1.8 0 .2-.3.6-.5.6-.2.1-.7.1-.8-.1-.4-.3-.7-.7-.9-1.1-1.7-4.1-3.3-8.2-4.3-12.5-.2-.7-.1-1.4-.1-2.3zm4.9-369.3c-.2.3-.5.9-.8.9-.4.1-1-.2-1.3-.5-.5-.6-.8-1.4-1.2-2.1-1.3-2.7-2.4-5.5-4.4-7.8-.7-.9-.7-1.7-.3-2.2s1.6-.2 2.3.7c2.3 2.8 4.2 5.9 5.4 9.3.2.5.2 1.1.3 1.7zM641.2 275c1.1.6 1.4 1.6 1.4 2.6.1 3.2.1 6.4 0 9.6 0 1.1-.4 1.9-1.5 2.3-.8-.6-1-1.4-1-2.2-.1-3.3-.1-6.6-.2-9.9.2-.8.2-1.7 1.3-2.4zm-188.5 88.1c-.8-.4-1.1-1.2-1.1-2V349c.3-.4.6-.8.9-1.1.4.3.9.5 1.1.9.3.6.4 1.4.4 2.1.1 3.2.2 6.4.2 9.7 0 1-.2 2.1-1.5 2.5zm301.4 356.2c1.3.2 1.6.8 1.8 1.5.9 2.7 1.8 5.5 2.6 8.2.1.4 0 .8 0 1.2-.1.4-.9.7-1.2.4-.3-.4-.7-.7-.9-1.2-.9-2.6-1.7-5.3-2.5-8-.1-.6.1-1.3.2-2.1zM615.7 320.9c0-1.5 1.6-2.9 3.3-2.8 1.4 0 2.6 1.4 2.5 2.8-.1 1.5-1.5 2.7-3.1 2.6-1.4 0-2.7-1.3-2.7-2.6zM464.4 453.1c-.2.3-.3.7-.5.8-.3.1-.8.1-1.1 0-.3-.1-.5-.3-.7-.6-1.1-1.7-2.2-3.4-3.2-5.1-.2-.3-.3-.8-.3-1.1 0-.4.3-.7.5-1 .2-.1.6 0 .8 0 .2 0 .4.1.5.3 2.2 1.8 3.3 4.2 4 6.7zm128 328.5c.4.4.9.7 1.3 1.1 1 1.4 2.2 2.5 3.8 3.2.2.1.4.2.5.3 1.2.7 1.7 1.5 1.3 2-.6.7-1.5.6-2.2.3-2.3-.9-4.3-2.1-5.3-4.5-.4-.8-.4-1.6.6-2.4zm-100-409.8c-1.4 0-2.7-1.2-2.7-2.7 0-1.4 1.3-2.7 2.6-2.8 1.1 0 2.6 1.3 2.7 2.4.2 1.7-1.1 3.1-2.6 3.1zm66.2-26.9c0 1.3-1.4 2.6-2.8 2.7-1.5 0-2.7-1.2-2.6-2.7 0-1.3 1.3-2.5 2.5-2.5 1.5 0 3 1.2 2.9 2.5zm-36.2 14.9c-1.5 0-2.5-1-2.5-2.4s1.2-2.7 2.7-2.7c1.6 0 2.9 1.1 2.9 2.4-.1 1.6-1.4 2.8-3.1 2.7zM460.2 384c-1.2 0-2-.3-2.6-1.1-.7-1-.6-2.2.3-3 1-.9 2.2-1 3.4-.7.8.3 1.3.9 1.4 1.8.1 1.1-.3 2-1.3 2.5-.4.4-1 .5-1.2.5zm125.3-53c.9.2 1.8.4 2.2 1.4.3 1-.2 2.2-1.2 2.8-1 .7-2.5.6-3.3-.2-.7-.7-.9-1.6-.5-2.4.4-1.2 1.6-1.8 2.8-1.6zM753 350.6c.9 0 1.5.6 1.8 1.4.2.6.2 1.4.1 2 0 .3-.5.7-.8.8-.3.1-.9-.1-1.1-.3-.4-.6-.8-1.4-1-2.1-.1-.7.3-1.4 1-1.8z"/><g><path class="st1" d="M737.4 493.1c2-.6 4-1.3 6-2 7.1-2.6 14.1-5.3 21.2-7.9 4.4-1.6 8.7-3.2 13-4.9 1-.4 1.8-.9 2.6-1.5.3-.2.3-.8.2-1.1-.1-.3-.6-.5-.9-.6-1.2-.3-2.2.3-3.2.7-8.3 3.1-16.6 6.2-24.8 9.4-4.5 1.7-8.9 3.5-13.4 5.3-1 .4-2.2.7-2.6 1.9.4 1.1 1.3.9 1.9.7zM842.6 627c-1.6-.7-2.8.1-4.3.7-10.3 4.1-20.7 8.3-31 12.5l-103.2 41.7c-29.5 11.9-59.1 23.9-88.6 35.8-1 .4-2 .9-3.1 1.1-2.8.5-4.2-.2-5.5-2.9-.2-.5-.4-.9-.6-1.4-1.4-3.6-2.9-7.3-4.4-10.9-12.3-29.4-24.7-58.7-37.1-88.1-5.3-12.5-10.7-25-16-37.5-.8-1.9-1.5-3.7-2.3-5.6-.3-.7-.8-1.4-1.6-1.6-.7.6-.7 1.3-.4 2 .8 1.9 1.7 3.8 2.5 5.8 7.1 17.1 14 34.2 21.2 51.3 11.9 28.2 23.8 56.4 35.7 84.5.5 1.2 1 2.4 1.7 3.5 1.7 2.8 4.4 3.8 7.5 2.9.6-.2 1.1-.5 1.7-.7 3.7-1.5 7.5-3 11.2-4.5 44.7-17.9 89.4-35.9 134.1-53.8L839 630c.9-.3 1.7-.7 2.5-1.1.6-.4 1.2-.8 1.1-1.9zM787.1 487.7c-3 .8-5.9 1.8-8.6 3.4-.8.5-1.7.9-2.1 2.1.4 0 .8.2 1.2.3 4-.2 7.5-1.8 10.9-3.7.4-.2.6-.9.9-1.3-.7-.8-1.4-1-2.3-.8zM760.5 489.8c-1.2.5-2.3 1.2-3.1 2.8 1.5.2 2.8.2 4.1 0 1.2-.4 2.5-.7 3.7-1.2 5.7-2.2 11.5-4.3 17.2-6.5 1.3-.5 2.6-1.1 3.9-1.7.9-.4 1.7-1 1.9-2.1-.6-.9-1.5-1.1-2.4-.9-.8.2-1.5.4-2.3.7l-18.3 6.9c-1.6.6-3.2 1.3-4.7 2z"/><path class="st1" d="M609.5 707.7c.8-.1 1.6-.3 2.3-.6 4.3-1.8 8.6-3.6 12.8-5.5 1-.4 1.9-1.1 2.8-1.7.3-.2.8-.5.5-1.2-1.4-.4-2.6.1-3.8.6-4.6 1.9-9.1 3.9-13.6 5.9-.7.3-1.4.8-2 1.3-.2.2-.2.6-.3 1 .5.1.8.3 1.3.2zM612 711.3c-.2.2-.4.6-.6 1 .5.2.7.3 1 .3.5 0 1 0 1.5-.2 1.8-.7 3.5-1.4 5.3-2.1 10.1-3.9 20.3-7.7 30.4-11.5 1.5-.5 2.9-1.1 4.4-1.8 1-.5 2-1 2.8-2.4-1 0-1.5 0-1.9.2-1.2.3-2.5.7-3.7 1.1-3.2 1.1-6.4 2.3-9.6 3.5-8.8 3.2-17.5 6.4-26.1 10.1-1.2.5-2.4 1.2-3.5 1.8z"/></g><path class="st1" d="M718.4 737.4c.5 1 .9 1.7 1.4 2.7-1 .4-1.8.8-2.6 1.1-29.5 11.9-59.1 23.9-88.6 35.8l-17.4 6.9c-5 2-11.8.4-14.6-4.5-.8-1.4-1.6-2.8-2.2-4.3-11.1-27.1-22.2-54.1-33.2-81.2-17.6-42.9-35.2-85.7-52.7-128.6-7.9-19.3-15.8-38.7-23.6-58.1-2.1-5.1-4-10.3-6-15.4-.2-.6-.5-1.1-.6-1.7 0-.5.3-1.1.4-1.6 1.5.4 1.7 1.6 2.1 2.6 1.6 3.8 3.3 7.6 4.9 11.4 6.5 15.7 13 31.4 19.4 47.1 17 41.4 33.9 82.8 50.8 124.2 13.6 33.2 27.1 66.4 40.7 99.6.6 1.5 1.3 2.9 2.2 4.3 2.5 4 7.2 5.5 11.6 3.7l47.7-19.5c19.2-7.8 38.4-15.6 57.6-23.3.7-.4 1.5-.7 2.7-1.2zm-101.3-463c-.1-1-.2-1.8-.4-2.9 3.7-.4 7.2.4 10.7.2.7-1.7.3-3.5.4-5.3.1-1.7 0-3.4 0-5.3-1.2-.5-2.5-1.1-3.7-1.7-.8-.3-1.4-.8-1.8-1.5-1.3-2.5-2.7-4.9-4-7.4-.7-1.2-1.3-2.5-1.9-3.8-.4-.9-.1-1.7.6-2.4 1.3.3 1.9 1.2 2.4 2.2 1.4 2.4 2.8 4.9 4.1 7.4.9 1.8 2.2 2.8 4.3 3.2.2-.6.4-1.3.7-1.8.2-.3.7-.7.9-.6.4.1.9.5 1 .9.2.6.3 1.4.3 2.1.1 3.8.1 7.6.2 11.5.1 4-.2 8 .2 12s2 7.3 4.9 10.1c4.7 4.5 10.2 6.5 16.7 6.6 6.2 0 11.6-2 16.4-5.8 2.2-1.8 4.2-3.7 6-5.9 1.3-1.6 1.3-1.5 3.4-2.2.6.3 1 .7.7 1.4-.2.5-.4.9-.7 1.3-4 5.5-8.7 10-15.1 12.6-2.7 1.1-5.5 1.7-8.5 1.9-6.2.5-12-.8-17.4-4.3-.8 1-1.6 2-2.3 3-.8 1-1.6 2.1-2.4 3.1-.6.8-1.4 1.2-2.2 1.4-.9.2-1.6-.3-1.7-1.2-.1-1.1.3-2 .9-2.8.8-1.2 1.7-2.3 2.5-3.4.6-.9 1.3-1.8 1.8-2.5-1.7-2.3-3.4-4.5-5.1-6.7-3.3 1.2-6.4 3.2-9.9 4.2-.6-1.3-.6-2.4-.5-3.8 3-1.8 6.3-3 9.5-4.7-.2-2.6-.3-5.2-.5-7.9-1.8-.5-3.6-.3-5.3-.5-1.7-.4-3.4-.5-5.2-.7zm251.1 404.3c-.8 1.5-2 2.1-3.3 2.7-5.1 2.1-10.2 4.4-15.3 6.4-27.4 11.1-54.7 22.1-82.1 33.2-.9.4-1.8.6-3 1-.3-1.1-.5-1.9-.8-2.8.7-.3 1.3-.7 1.9-.9 31.8-12.9 63.7-25.7 95.5-38.6 1.3-.5 2.6-1 4-1.4 1-.5 2-.6 3.1.4zM680 262.2c.1 0 .3.1.3.1 10.4 22.4 20.9 44.8 31.3 67.2.1.3.1.6.2 1-1.6.6-3.1 1.2-4.8 1.8-.5-1-.9-1.9-1.3-2.8-6.7-14.5-13.4-29-20.2-43.5-1.4-2.9-2.8-5.8-4.1-8.7-.4-.8-.7-1.7-.7-2.6-.3-4.2-.5-8.4-.7-12.5zm-124.6 66.6c.5 1.4.4 2.2 0 3.1-.3.8-.6 1.7-1.1 2.5-4.6 7.1-10.5 12.6-18.8 14.6-10.5 2.5-19.7.1-27.4-7.7-3.5-3.5-5.4-7.7-5.5-12.7-.1-4.8-.1-9.7-.1-14.5 0-2.8 0-5.6.1-8.5 0-.8.2-1.6.5-2.3.1-.3.6-.7.9-.7s.8.3.9.6c.3 1.1.6 2.1.6 3.2.1 3.2.1 6.4.2 9.7 0 2.4-.1 4.8.1 7.2.1 2.6.3 5.2.7 7.8.4 2.6 1.8 4.9 3.5 6.9 8.4 9.6 22.4 10.4 31.6 4.6 4.5-2.8 8.2-6.5 11.1-10.9.4-.7.8-1.4 1.3-2 .2-.3.7-.5 1.4-.9zm-63.4 24c.6 1.2.4 2.2 0 3.1-.3.9-.7 1.9-1.3 2.7-4 6-9 10.8-15.9 13.3-10.8 3.9-23 1.3-30.8-7.6-2.5-2.8-4.3-6-4.5-9.9-.1-2.5-.4-5-.5-7.5 0-5.4 0-10.9.1-16.3 0-1.2.3-2.4.6-3.5 0-.2.4-.5.7-.5.3 0 .8.2 1 .5.6 1 .7 2.1.7 3.2.1 5.8.1 11.7.2 17.5.1 2.4.3 4.8.6 7.2.4 2.7 1.8 5.1 3.6 7.2 4.8 5.2 10.7 7.9 17.9 8.1 6.7.2 12.4-2.1 17.4-6.3 3.2-2.7 5.9-5.8 8.1-9.3.6-1.2.6-1.2 2.1-1.9zm76-74.7c.4.4.9.8 1 1.2.3 1.1.5 2.2.5 3.3.1 5.7.1 11.5.2 17.2.1 2.4.3 4.8.7 7.2.5 2.5 1.8 4.7 3.5 6.6 4.4 4.7 9.7 7.3 16.2 7.6 7.1.4 13.3-1.7 18.7-6.2 3.4-2.9 6.3-6.2 8.6-10 .5-.8.9-1.6 2.2-1.4 0 .5.3 1.1.1 1.6-.4 1.2-.7 2.6-1.4 3.6-4.6 7.2-10.5 12.8-19 14.9-9.9 2.6-18.9.7-26.6-6.4-3.9-3.6-6.1-8-6.1-13.3-.1-4.6-.1-9.2-.1-13.9 0-2.9 0-5.8.1-8.7 0-1.1 0-2.3 1.4-3.3zm-103 211c1.2 4.9 2.2 9.4 3.3 13.9.3 1.5.6 2.9.9 4.4.1.7.1 1.4 0 2.1 0 .2-.3.7-.5.7-.3 0-.8-.2-1-.4-.4-.7-.7-1.4-1-2.2-.4-1.3-.8-2.7-1.1-4.1-1.1-4.4-2.3-8.8-3.4-13.1-.3-1.1-.7-2.1-1.2-3.1-2.9-6.5-5.8-13-8.7-19.6-.6-1.3-.4-1.7.8-2.5.3-.2.7-.5 1-.6 4.5-1.8 4.4-1.8 6.4 1.9 3 5.6 6 11.2 9 16.7 0 .1.1.2.2.3.9 1.8.5 2.8-1.2 3.7-1.1.7-2.2 1.3-3.5 1.9zm-17.9-62.6c-.8 1.9-2.6 2.4-3.8 3.9.1.5.1 1 .3 1.6 1.5 5.2 3 10.4 4.4 15.7.5 1.8.9 3.7 1.3 5.6.2.9.2 1.8-.7 2.4-.9 0-1.2-.7-1.4-1.3-.5-1.2-.9-2.5-1.3-3.7l-5.1-18c-.4-1.5-1.1-3-1.7-4.5-2.8-6.1-5.5-12.3-8.2-18.4-.2-.5-.4-1.1-.5-1.7-.1-.7.1-1.4.8-1.8.5-.3 1-.7 1.6-.9 2.5-1.2 3.6-.9 4.8 1.6.7 1.3 1.3 2.7 2 4.1 1.7 3.5 3.5 7 5.2 10.5.7 1.6 1.5 3.3 2.3 4.9zm-5.1-32.1c-1-.8-1.4-1.8-1.9-2.8-1.8-3.9-3.6-7.8-5.3-11.8l-15.9-38.4c-4.9-11.7-9.8-23.3-14.7-35-.4-.8-.7-1.7-.9-2.5-.1-.4-.3-.8-.2-1.2.1-.3.3-.7.6-.9.2-.1.6 0 .8.2.5.5.9 1.1 1.3 1.7.5 1 .9 2 1.3 3 9.9 23.8 19.7 47.7 29.6 71.6 1.9 4.5 3.6 9.2 5.3 13.8.2.6.6 1.4 0 2.3zm-6.8-1.3c-1.8-.8-2.2-2.1-2.8-3.2-1.6-3.4-3.1-6.7-4.6-10.1-5.5-12.6-10.9-25.2-16.3-37.9-.9-2.1-1.7-4.3-2.4-6.5-.2-.6-.3-1.4-.3-2.1 0-.2.2-.6.4-.7.2-.1.7 0 .8.1.6.9 1.3 1.8 1.7 2.8 2.9 6.6 5.9 13.2 8.7 19.8 4.7 11.1 9.3 22.2 13.9 33.3.3.7.7 1.5.9 2.2.1.7 0 1.3 0 2.3zm35.6 12.7c2-.8 4.1-1.6 6.1-2.4 1.8-.7 3.5-1.4 5.3-2.1 1.6-.6 2.5-.2 3 1 .4 1-.1 2-1.3 2.7-.7.4-1.5.7-2.2 1-3.3 1.4-6.7 2.7-10.2 4.2 1.4 1.1 2.9 1 4.3 1.6.8.3 1.7.5 2.5.9.7.3.9 1.1.7 1.8-.1.5-.4 1-1 1-.7.1-1.4.2-2.1 0-2.8-.6-5.5-1.2-8.2-1.8-.6-.1-1.1-.4-1.7-.7-1.7-.9-2.2-2-1.4-3.7 1.5-3.4 3.1-6.8 4.6-10.2.4-1 1.1-1.6 2.2-1.9.6-.1 1.2.3 1.3.9.2 1 0 2-.5 2.9-.7 1.4-1.3 2.9-2 4.3.4.2.5.4.6.5zm63.8-155.4c4.4-.1 7.7 2.8 8.2 6.7.2 1.3-.2 2.6-.9 3.7-2.3 3.9-8.1 4.9-11.6 2.1-3.6-2.8-3.3-8.5.6-11.2 1.2-.8 2.6-1.3 3.7-1.3zm4.5 3.1c-1 .6-1.8 1.2-2.8 1.4-.9.2-2 0-3 0h-.3c-2.5.4-3.5 2.5-2.2 4.7 1.4 2.3 4.5 3.1 6.8 1.8.7-.4 1.3-1 1.9-1.5.2-.2.2-.5.3-.8-.7-.6-1.8-.6-1.9-1.9.6-1 2.4-1.7 1.2-3.7zm190.5 495.1c.2-.5.2-1.1.5-1.4.7-.8 1.5-1.6 2.4-2.3 8.1-5.7 17-9.6 26.6-11.5 1.2-.2 2.4-.1 3.6 0 .3 0 .6.5.7.8.1.2-.1.7-.3.7-1.1.5-2.2 1-3.3 1.3-7.2 1.6-14.1 4.1-20.5 7.7-2.4 1.3-4.6 2.8-7 4.2-.7.4-1.4 1-2.7.5zM438.3 441.2c-1.7-.8-1.9-2.2-2.3-3.4-.5-1.6-.9-3.3-1.4-4.9-1.5-4.3-3.6-8.2-6-12.1-.6-.9-1.1-1.9-1.5-2.9-.1-.3 0-.9.3-1.1.2-.2.8-.2 1 0 .9.8 1.9 1.5 2.6 2.5 3.6 5.4 6.4 11.1 7.8 17.4.2 1 .2 2 .2 3 0 .5-.4.9-.7 1.5z"/><path d="M482.5 582.9c1.4.7 2.1 1.8 2.6 3 2.4 6.4 4.8 12.8 7.4 19.1.9 2.1 2 4.2 3.1 6.2 1.7 3.1 3.1 6.3 4.1 9.7 2.1 7 5.2 13.7 7.9 20.5 3.3 5.4 4.8 11.5 7.1 17.2 1.2 2.9 2.3 5.8 3.8 8.5 3.9 6.8 6.7 14.1 9.6 21.4 1.7 4.3 3.1 8.7 4.7 13 .9 2.4 1.9 4.9 2.9 7.3 1.8 4.2 3.6 8.5 5.7 12.6.5 1 .8 2 1.3 3.1.7 1.7 1.4 3.3 2.1 5 .3.8.7 1.7 1 2.5.2.8-.3 1.6-1 2s-1.4.2-2-.3-1.2-1.1-1.5-1.8c-.9-1.7-1.6-3.4-2.4-5.2-.7-1.6-1.2-3.2-1.9-4.7-4.1-8.3-7.5-16.8-10.6-25.6-2.4-7-5.5-13.8-8.3-20.7-.4-.9-.8-1.8-1.4-2.7-3.9-6.4-6.5-13.4-8.8-20.4-.8-2.5-1.8-4.9-3.1-7.2-.5-.8-.9-1.6-1.2-2.4-2.9-7.1-6.1-14-8.3-21.3-.8-2.8-2-5.5-3.4-8-1.9-3.3-3.5-6.8-4.8-10.4-1.4-3.8-3-7.5-4.3-11.2-.7-2-1.2-4-1.7-6.1-.2-1.3-.1-1.3 1.4-3.1zm-63.5-324c.3-1.2 1-1.7 1.8-2.2 3.2-1.9 6.4-3.7 10.2-4.4 7.6-1.5 14.9-4 22.2-6.6 4-1.4 8-2.7 11.7-4.6.9-.5 1.9-.8 2.8-1 5.2-1.2 10.1-3.3 15.2-4.9 1.5-.5 3-1.1 4.6-1.4 1.5-.3 3-.4 3.9 1.2-.3 1.7-1.7 2.3-3 2.8-2.4.9-4.9 1.7-7.4 2.5-4.1 1.4-8.1 3-12.3 3.9-.9.2-1.7.6-2.5 1-7.8 3.7-16.1 6.1-24.3 8.9-3.3 1.1-6.8 1.7-10.3 2.4-2.3.5-4.5 1.2-6.6 2.2-1.1.5-2.2.9-3.4 1.3-.9.2-1.8-.2-2.6-1.1zm444.4 323.3c-.3.3-.6.9-1.1 1.1-.3.1-1-.2-1.3-.5-.5-.5-.9-1.1-1.3-1.7-2.6-4-5-8-6.5-12.5-.5-1.4-1.1-2.8-1.9-4.1-1.7-2.9-2.9-6-3.4-9.3-.4-2.6-1.4-5-2.8-7.2-1.6-2.4-2.8-4.9-3.9-7.5-1.7-4.2-3.7-8.3-6.1-12.1-1.4-2.2-2.3-4.7-2.9-7.2-.7-3.1-1.4-6.1-3.4-8.6-.2-.2-.4-.5-.3-.8 0-.5 0-1 .3-1.4.1-.2.8-.2 1.1-.1 1.7.5 2.9 1.8 3.7 3.3.6 1.1 1 2.4 1.4 3.6.4 1.3.7 2.7 1.2 4 .7 1.8 1.4 3.6 2.3 5.2 2.4 4.1 4.5 8.3 6.4 12.6 1 2.3 2.1 4.6 3.4 6.7 1.7 2.8 3 5.7 3.4 8.9.4 2.7 1.4 5.2 2.7 7.6.9 1.6 1.6 3.2 2.3 4.9 1.2 3.1 2.4 6.2 4.3 8.9 1 1.4 1.8 2.9 2 4.7.3.5.3.9.4 1.5zm-355.8 88.7c0 .3 0 .5-.1.7-.1.5-.7.8-1.1.7-1.3-.4-2.2-1.4-2.9-2.5-1.7-2.7-3.4-5.4-4.7-8.4-.9-2.2-2-4.4-3-6.6-.6-1.4-1.2-2.8-1.6-4.2-1-4.3-2.7-8.4-4.1-12.6-.3-.9-.7-1.7-.8-2.6-.1-.7 0-1.4.2-2 .3-.9 1.3-1.1 1.9-.3.9 1.2 1.7 2.5 2.3 3.8 1.5 3.7 3 7.4 3.9 11.3.5 2.3 1.3 4.4 2.4 6.4.5.9.8 1.8 1.3 2.7 1.3 2.9 2.6 5.9 4.3 8.6 1.1 1.5 1.9 3.2 2 5zm338-142.7c.8-.5 1.6-.3 2.3.1 1.1.7 2 1.6 2.9 2.5.3.3.5.8.7 1.3 3.1 6.4 6.3 12.8 9.4 19.1.4.8.7 1.6 1.1 2.5.4 1 .5 2.1 0 3-.8.4-1.4-.1-1.7-.5-.7-.8-1.3-1.8-1.8-2.7-1.9-4.3-3.9-8.6-6.2-12.7-1.2-2.1-2-4.4-3-6.6-.7-1.6-1.4-3.1-2.9-4.1-.7-.2-1.2-.9-.8-1.9zM432.4 246.3c-.6-.1-.9-.1-1.2-.1-1-.2-1.4-1.1-.7-1.7.9-.8 1.7-1.8 2.8-2.2 4.1-1.6 8.2-3.3 12.6-3.8.8-.1 1.6-.1 2.4 0 .4.1 1 .5 1 .9.1.4-.3 1-.6 1.2-.7.5-1.6.9-2.4 1.2-3.8 1.3-7.6 2.6-11.4 3.8-.9.4-1.8.6-2.5.7zm84.7 446.8c0 .3-.1.5-.1.7-.1.9-1.1 1.3-1.8.7-.5-.5-1-1-1.3-1.6l-5.4-11.4c-.2-.4-.2-1-.1-1.4.1-1.1 1.1-1.6 1.9-.9 1 .9 2 1.8 2.5 2.9 1.5 3.3 2.8 6.6 4.1 10 .2.3.2.7.2 1zm34.3 52.1c0 .9-.4 1.8-1.1 2-.9.3-1.6.1-2.2-.6-.7-.9-1.4-1.9-1.9-3-.2-.5 0-1.2.1-1.7.1-.3.6-.6.9-.6 2.2-.1 4.1 1.8 4.2 3.9zm-94.1-508.8c.4-1.4 1.5-2.1 2.7-2.6 1.1-.5 2.2-1 3.4-.6.9.2 1.4 1.2.8 1.8-1.7 1.6-3.7 2.5-6.2 2.1-.2-.1-.4-.4-.7-.7z"/></g></svg>